<svg xmlns="http://www.w3.org/2000/svg" viewBox="0 0 512 512" role="img" aria-labelledby="title desc">
  <title id="title">記帳金庫圖示</title>
  <desc id="desc">金色玻璃感錢幣容器與勾選符號。</desc>
  <defs>
    <linearGradient id="bg" x1="64" x2="448" y1="32" y2="480" gradientUnits="userSpaceOnUse">
      <stop stop-color="#FFE6A3"/>
      <stop offset="0.55" stop-color="#F4B52F"/>
      <stop offset="1" stop-color="#C67D00"/>
    </linearGradient>
    <linearGradient id="glass" x1="128" x2="384" y1="96" y2="416" gradientUnits="userSpaceOnUse">
      <stop stop-color="#FFFFFF" stop-opacity="0.78"/>
      <stop offset="1" stop-color="#FFFFFF" stop-opacity="0.24"/>
    </linearGradient>
  </defs>
  <rect width="512" height="512" rx="116" fill="url(#bg)"/>
  <path d="M154 154c0-35 28-63 63-63h78c35 0 63 28 63 63v204c0 35-28 63-63 63h-78c-35 0-63-28-63-63V154Z" fill="url(#glass)" stroke="#fff8df" stroke-width="18"/>
  <path d="M154 288h204v70c0 35-28 63-63 63h-78c-35 0-63-28-63-63v-70Z" fill="#FFD66C" opacity=".82"/>
  <path d="m203 267 39 40 76-96" fill="none" stroke="#5D3B00" stroke-linecap="round" stroke-linejoin="round" stroke-width="32"/>
</svg>
